<svg xmlns="http://www.w3.org/2000/svg" xmlns:xlink="http://www.w3.org/1999/xlink" version="1.1" id="recoon" x="0px" y="0px" viewBox="0 0 100 100" xml:space="preserve"><path d="M96.31,63.93c-3.829-1.862-24.952-12.277-29.228-14.29c-4.165-1.958-7.471,0.324-9.203,1.624  c-1.732,1.3-2.816,1.19-3.682,0.433s-1.949-3.139,0.108-7.253c2.058-4.113,5.089-3.465,7.902-2.382  c2.816,1.083,18.841,8.877,26.634,12.016c7.795,3.142,6.277,0.022,5.306-1.514c-0.753-1.188-5.306-7.146-7.581-9.853  c-2.271-2.707-0.131-5.944,1.19-9.743c1.603-4.595,3.272-10.991,1.985-15.444c-1.759-6.1-6.527-6.864-11.232-3.216  c-2.563,1.988-7.424,7.618-7.424,7.618H28.887c0,0-4.86-5.63-7.424-7.618c-4.705-3.648-9.472-2.883-11.232,3.216  c-1.286,4.454,0.383,10.849,1.984,15.444c1.324,3.799,3.464,7.037,1.19,9.743c-2.274,2.707-6.826,8.665-7.578,9.853  c-0.974,1.536-2.49,4.655,5.304,1.514c7.796-3.139,23.819-10.933,26.633-12.016c2.815-1.083,5.847-1.731,7.903,2.382  c2.057,4.114,0.974,6.496,0.108,7.253s-1.948,0.867-3.681-0.433c-1.732-1.299-5.041-3.582-9.202-1.624  C28.615,51.652,7.494,62.067,3.662,63.93c-3.14,1.526-3.358,3.411,0.182,5.371c3.755,2.076,19.532,9.987,24.201,12.035  c5.462,2.398,9.719,3.164,9.719,1.973c0-1.19-4.005-4.114-4.005-7.902c0-3.79,4.33-7.038,6.17-8.229  c1.841-1.19,4.114,1.408,5.088,3.141c0.975,1.733-0.433,3.248-1.732,4.979c-1.299,1.732-1.84,4.981,0.108,6.604  c1.924,1.601,11.262,1.601,13.186,0c1.949-1.623,1.407-4.872,0.109-6.604c-1.301-1.731-2.708-3.246-1.732-4.979  c0.974-1.732,3.247-4.331,5.087-3.141c1.842,1.191,6.172,4.439,6.172,8.229c0,3.788-4.007,6.712-4.007,7.902  c0,1.191,4.258,0.426,9.719-1.973c4.668-2.048,20.447-9.959,24.202-12.035C99.669,67.341,99.453,65.456,96.31,63.93z M36.207,61.345  c-2.182,0-3.951-1.768-3.951-3.951c0-2.183,1.769-3.951,3.951-3.951c2.183,0,3.952,1.769,3.952,3.951  C40.159,59.577,38.39,61.345,36.207,61.345z M63.766,61.345c-2.182,0-3.951-1.768-3.951-3.951c0-2.183,1.77-3.951,3.951-3.951  c2.183,0,3.951,1.769,3.951,3.951C67.717,59.577,65.948,61.345,63.766,61.345z" transform="translate(-0.3039999008178711,-10.659997940063477)" fill="#cccccc"></path></svg>